<svg width="19" height="18" viewBox="0 0 19 18" fill="none" xmlns="http://www.w3.org/2000/svg">
<path d="M15.7131 15.7057C14.411 16.8708 11.2927 17.6932 9.7507 17.6932C7.93457 17.6932 5.22751 17.282 3.17151 15.2602C1.11551 13.2385 0.293108 11.0797 0.841375 7.41316C1.27999 4.47993 3.81115 3.10698 5.02191 2.78716C6.28977 2.61583 7.07791 2.92423 7.83177 2.92423C8.38004 2.92423 8.65417 2.47876 9.61364 2.47876C9.9563 2.47876 10.299 2.58156 10.8472 2.78716C11.3955 2.99276 12.3207 2.54729 13.9312 2.78716C15.5418 3.02702 18.0432 4.29489 18.523 8.23556C19.0027 12.1762 17.0152 14.5406 15.7131 15.7057Z" fill="#B13429"/>
<path d="M9.30341 0.718841C9.23726 0.851418 9.27585 1.87889 9.30341 2.37605C7.84793 1.78028 6.3814 2.45925 5.83008 2.87322C6.29319 2.80693 7.40135 3.06656 7.89754 3.20466C7.43443 3.66867 7.26352 4.39232 7.23595 4.69614C7.50058 4.3647 9.00018 3.83992 9.7169 3.61896C10.0477 3.61896 11.3433 4.33708 11.9498 4.69614C11.8836 3.96697 11.2606 3.23228 10.9574 2.95608C11.5528 2.95608 12.4184 2.73511 12.7767 2.62463C11.8505 2.02804 10.6817 2.04461 10.2131 2.12747C10.2131 1.72974 10.3785 1.0779 10.4612 0.801702C10.1028 0.718841 9.36957 0.586265 9.30341 0.718841Z" fill="#427238" stroke="#2B3917" stroke-width="0.405976" stroke-linejoin="round"/>
<path opacity="0.5" d="M9.29459 2.56164C9.15431 2.52005 8.71306 2.4951 8.07031 2.72802C8.44015 2.72802 9.21807 2.75297 9.3711 2.85279C9.21807 2.89439 8.88139 3.05244 8.75897 3.35191C9.01402 3.21327 9.5624 2.93598 9.71543 2.93598C9.91948 3.0053 10.3582 3.18554 10.4806 3.35191C10.4423 3.22713 10.3352 2.95261 10.2128 2.85279C10.4168 2.74188 10.9014 2.52837 11.2075 2.56164C10.9397 2.50619 10.3352 2.41191 10.0598 2.47846" stroke="#2B3917" stroke-width="0.405976" stroke-linejoin="round"/>
<mask id="mask0_2490_5302" style="mask-type:alpha" maskUnits="userSpaceOnUse" x="0" y="2" width="19" height="16">
<path d="M15.7131 15.7057C14.411 16.8708 11.2927 17.6932 9.7507 17.6932C7.93457 17.6932 5.22751 17.282 3.17151 15.2602C1.11551 13.2385 0.293108 11.0797 0.841375 7.41316C1.27999 4.47993 3.81115 3.10698 5.02191 2.78716C6.28977 2.61583 7.07791 2.92423 7.83177 2.92423C8.38004 2.92423 8.65417 2.47876 9.61364 2.47876C9.9563 2.47876 10.299 2.58156 10.8472 2.78716C11.3955 2.99276 12.3207 2.54729 13.9312 2.78716C15.5418 3.02702 18.0432 4.29489 18.523 8.23556C19.0027 12.1762 17.0152 14.5406 15.7131 15.7057Z" fill="#B13529"/>
</mask>
<g mask="url(#mask0_2490_5302)">
<rect x="-2.4082" y="12.5188" width="23.0272" height="16.8592" fill="#DFC6B0"/>
</g>
</svg>
