<svg width="16" height="17" viewBox="0 0 16 17" fill="none" xmlns="http://www.w3.org/2000/svg">
<path opacity="0.7" d="M13.198 2.0247C12.9276 1.75435 12.4893 1.75435 12.2189 2.0247C11.9486 2.29506 11.9486 2.73338 12.2189 3.00374L13.198 2.0247ZM13.9526 4.73745C14.223 5.0078 14.6613 5.0078 14.9317 4.73745C15.202 4.46709 15.202 4.02877 14.9317 3.75841L13.9526 4.73745ZM8.19961 6.7883C8.19961 6.40596 7.88966 6.09602 7.50733 6.09602C7.12499 6.09602 6.81505 6.40596 6.81505 6.7883H8.19961ZM6.81505 9.29254C6.81505 9.67488 7.12499 9.98482 7.50733 9.98482C7.88966 9.98482 8.19961 9.67488 8.19961 9.29254H6.81505ZM5.58098 0.280865C5.19865 0.280865 4.8887 0.590809 4.8887 0.973145C4.8887 1.35548 5.19865 1.66542 5.58098 1.66542V0.280865ZM9.24104 1.66542C9.62337 1.66542 9.93332 1.35548 9.93332 0.973145C9.93332 0.590809 9.62337 0.280865 9.24104 0.280865V1.66542ZM11.641 4.33632C11.3707 4.60667 11.3707 5.045 11.641 5.31535C11.9114 5.5857 12.3497 5.5857 12.6201 5.31535L11.641 4.33632ZM6.81505 6.7883V9.29254H8.19961V6.7883H6.81505ZM5.58098 1.66542H9.24104V0.280865H5.58098V1.66542ZM12.6201 5.31535L14.0648 3.87059L13.0858 2.89156L11.641 4.33632L12.6201 5.31535ZM13.172 9.44906C13.172 12.5776 10.6358 15.1137 7.50733 15.1137V16.4983C11.4005 16.4983 14.5565 13.3422 14.5565 9.44906H13.172ZM7.50733 15.1137C4.37882 15.1137 1.84267 12.5776 1.84267 9.44906H0.458111C0.458111 13.3422 3.61415 16.4983 7.50733 16.4983V15.1137ZM1.84267 9.44906C1.84267 6.32056 4.37882 3.7844 7.50733 3.7844V2.39984C3.61415 2.39984 0.458111 5.55589 0.458111 9.44906H1.84267ZM7.50733 3.7844C10.6358 3.7844 13.172 6.32056 13.172 9.44906H14.5565C14.5565 5.55589 11.4005 2.39984 7.50733 2.39984V3.7844ZM12.2189 3.00374L13.0858 3.87059L14.0648 2.89156L13.198 2.0247L12.2189 3.00374ZM13.0858 3.87059L13.9526 4.73745L14.9317 3.75841L14.0648 2.89156L13.0858 3.87059Z" fill="black"/>
</svg>
