<svg width="19" height="18" viewBox="0 0 19 18" fill="none" xmlns="http://www.w3.org/2000/svg">
<path d="M15.7131 15.7059C14.411 16.871 11.2927 17.6934 9.7507 17.6934C7.93457 17.6934 5.22751 17.2822 3.17151 15.2605C1.11551 13.2387 0.293108 11.0799 0.841375 7.4134C1.27999 4.48018 3.81115 3.10722 5.02191 2.7874C6.28977 2.61607 7.07791 2.92447 7.83177 2.92447C8.38004 2.92447 8.65417 2.479 9.61364 2.479C9.9563 2.479 10.299 2.5818 10.8472 2.7874C11.3955 2.993 12.3207 2.54754 13.9312 2.7874C15.5418 3.02727 18.0432 4.29513 18.523 8.2358C19.0027 12.1765 17.0152 14.5409 15.7131 15.7059Z" fill="#E6DED3"/>
<path d="M9.30341 0.718841C9.23726 0.851418 9.27585 1.87889 9.30341 2.37605C7.84793 1.78028 6.3814 2.45925 5.83008 2.87322C6.29319 2.80693 7.40135 3.06656 7.89754 3.20466C7.43443 3.66867 7.26352 4.39232 7.23595 4.69614C7.50058 4.3647 9.00018 3.83992 9.7169 3.61896C10.0477 3.61896 11.3433 4.33708 11.9498 4.69614C11.8836 3.96697 11.2606 3.23228 10.9574 2.95608C11.5528 2.95608 12.4184 2.73511 12.7767 2.62463C11.8505 2.02804 10.6817 2.04461 10.2131 2.12747C10.2131 1.72974 10.3785 1.0779 10.4612 0.801702C10.1028 0.718841 9.36957 0.586265 9.30341 0.718841Z" fill="#427238" stroke="#2B3917" stroke-width="0.405976" stroke-linejoin="round"/>
<path opacity="0.5" d="M9.29459 2.56116C9.15431 2.51956 8.71306 2.49461 8.07031 2.72753C8.44015 2.72753 9.21807 2.75248 9.3711 2.85231C9.21807 2.8939 8.88139 3.05195 8.75897 3.35142C9.01402 3.21278 9.5624 2.93549 9.71543 2.93549C9.91948 3.00481 10.3582 3.18505 10.4806 3.35142C10.4423 3.22664 10.3352 2.95213 10.2128 2.85231C10.4168 2.74139 10.9014 2.52788 11.2075 2.56116C10.9397 2.5057 10.3352 2.41142 10.0598 2.47797" stroke="#2B3917" stroke-width="0.405976" stroke-linejoin="round"/>
<mask id="mask0_2490_5256" style="mask-type:alpha" maskUnits="userSpaceOnUse" x="0" y="2" width="19" height="16">
<path d="M15.7131 15.7059C14.411 16.871 11.2927 17.6934 9.7507 17.6934C7.93457 17.6934 5.22751 17.2822 3.17151 15.2605C1.11551 13.2387 0.293108 11.0799 0.841375 7.4134C1.27999 4.48018 3.81115 3.10722 5.02191 2.7874C6.28977 2.61607 7.07791 2.92447 7.83177 2.92447C8.38004 2.92447 8.65417 2.479 9.61364 2.479C9.9563 2.479 10.299 2.5818 10.8472 2.7874C11.3955 2.993 12.3207 2.54754 13.9312 2.7874C15.5418 3.02727 18.0432 4.29513 18.523 8.2358C19.0027 12.1765 17.0152 14.5409 15.7131 15.7059Z" fill="#B13529"/>
</mask>
<g mask="url(#mask0_2490_5256)">
<rect x="-2.4082" y="12.519" width="23.0272" height="16.8592" fill="#DFC6B0"/>
</g>
</svg>
